<?xml version="1.0" standalone="no"?>
<!DOCTYPE svg PUBLIC "-//W3C//DTD SVG 20010904//EN"
 "http://www.w3.org/TR/2001/REC-SVG-20010904/DTD/svg10.dtd">
<svg version="1.0" xmlns="http://www.w3.org/2000/svg"
 width="1280.000000pt" height="720.000000pt" viewBox="0 0 1280.000000 720.000000"
 preserveAspectRatio="xMidYMid meet">
<g transform="translate(0.000000,720.000000) scale(0.100000,-0.100000)"
fill="#000000" stroke="none">
<path d="M9517 7183 c-38 -8 -622 -224 -1298 -479 -676 -255 -1250 -470 -1274
-476 -40 -11 -45 -10 -62 10 -20 23 60 20 -1818 77 -275 8 -639 20 -810 25
-170 5 -470 14 -665 20 -195 5 -398 12 -450 15 l-95 5 -60 -40 c-33 -23 -357
-219 -720 -436 -363 -217 -1011 -605 -1440 -862 l-780 -467 -13 -94 c-7 -51
-11 -96 -8 -99 3 -3 23 3 44 12 22 10 55 16 78 14 l39 -3 3 -80 c2 -44 -4
-219 -12 -390 -9 -170 -29 -584 -46 -920 -34 -707 -49 -972 -56 -988 -2 -7
-14 -17 -26 -22 -15 -7 -25 -27 -35 -64 -7 -30 -12 -55 -10 -57 2 -2 464 -87
1028 -188 1625 -293 1639 -296 1747 -327 23 -7 147 -10 339 -9 166 0 304 -3
307 -8 3 -5 10 -101 16 -213 6 -112 13 -222 15 -244 l5 -40 208 0 c176 -1 222
-4 311 -24 297 -64 633 -219 933 -432 169 -120 429 -343 439 -377 3 -10 15 -9
55 3 28 8 102 28 165 43 l114 29 5 39 c3 24 11 40 20 41 27 4 705 81 1079 123
200 22 380 40 399 40 27 0 45 -9 77 -39 61 -56 119 -64 192 -26 63 32 67 44
54 143 -9 68 -13 77 -67 143 -128 157 -331 303 -730 526 -96 53 -174 103 -174
110 0 17 38 17 169 -3 540 -79 1271 -321 2171 -719 245 -108 263 -115 460
-160 270 -62 282 -62 393 0 l87 49 0 46 c0 44 -7 56 -152 251 -319 429 -378
511 -372 520 3 5 10 6 16 3 16 -10 204 -6 287 6 107 15 105 19 97 -169 -6
-116 -4 -156 5 -161 6 -4 37 -6 68 -4 31 2 214 13 406 24 l351 20 639 -85
c352 -47 727 -103 834 -124 187 -37 195 -38 264 -25 115 22 107 14 106 107 l0
82 -151 120 c-199 159 -239 195 -232 207 4 6 29 8 63 4 51 -5 62 -2 126 32
l70 37 3 77 c2 61 6 80 20 87 30 16 165 32 264 32 106 0 107 1 122 61 5 22 0
33 -26 57 -32 30 -32 31 -20 76 18 67 15 123 -9 173 -30 60 -70 84 -134 79
-67 -5 -101 -29 -136 -99 -32 -63 -61 -77 -79 -35 -13 29 -41 1047 -30 1068 5
9 42 29 82 46 80 33 110 65 129 136 17 64 2 138 -47 237 -50 99 -70 119 -178
179 -41 23 -80 50 -86 60 -6 12 -8 56 -5 108 3 48 17 360 31 693 13 333 29
614 33 626 7 17 60 38 255 103 l245 83 31 46 c49 74 96 259 87 339 -49 397
-42 375 -132 408 -27 10 -637 274 -1355 587 -1735 757 -1643 718 -1687 717
-21 -1 -69 -8 -106 -16z m-5822 -1098 c967 -57 1072 -64 1760 -106 363 -22
664 -45 670 -50 15 -14 7 -18 -295 -133 -151 -57 -471 -180 -710 -271 -718
-275 -1820 -696 -1903 -726 -70 -26 -78 -27 -84 -12 -7 18 4 227 42 773 14
195 25 384 25 419 l0 63 -27 -7 c-56 -13 -45 65 -118 -840 -20 -242 -38 -448
-41 -457 -3 -9 -43 -33 -92 -54 l-87 -38 -500 -7 c-956 -13 -1848 -15 -1852
-3 -3 9 683 405 2137 1234 157 90 317 182 355 206 41 25 82 43 100 44 17 0
296 -16 620 -35z m6035 -336 c322 -110 990 -339 1485 -509 l900 -308 3 -35 c3
-36 -42 -1180 -54 -1359 -6 -95 -7 -98 -30 -98 -22 0 -429 61 -2029 306 -415
64 -744 109 -825 114 -74 5 -159 13 -188 19 -28 6 -64 8 -80 6 -15 -3 -200
-28 -412 -55 -411 -54 -561 -74 -1745 -230 -418 -55 -998 -131 -1290 -169
-291 -38 -689 -91 -883 -116 -253 -34 -357 -44 -364 -37 -8 8 -13 201 -16 606
l-5 595 24 10 c13 6 290 89 614 185 489 145 2164 641 3825 1133 195 57 382
113 415 123 33 11 62 19 65 19 3 1 268 -89 590 -200z m-5597 -1226 c4 -82 10
-532 13 -1002 l7 -853 -219 4 c-120 3 -228 8 -238 13 -18 8 -19 20 -13 349 9
513 28 1215 35 1355 l7 123 180 78 c99 44 189 79 201 79 20 1 21 -5 27 -146z
m-2007 -94 c3 -6 0 -15 -7 -20 -8 -5 -263 -102 -568 -215 -305 -114 -562 -215
-571 -224 -14 -14 -18 -46 -24 -161 -6 -143 -37 -900 -56 -1394 -11 -272 -15
-321 -30 -330 -13 -8 -681 -66 -691 -59 -14 8 -11 92 16 613 14 262 36 694 50
961 33 621 44 793 53 802 7 7 751 26 1212 31 113 1 296 3 407 5 140 1 204 -1
209 -9z m1524 -250 c0 -331 -22 -974 -33 -986 -14 -14 -566 -89 -590 -80 -13
5 -15 17 -11 69 2 35 16 232 29 438 32 488 35 518 51 531 17 14 492 157 527
158 l27 1 0 -131z m-690 -123 c0 -29 -16 -255 -35 -502 -28 -351 -39 -451 -50
-460 -16 -12 -48 -16 -1125 -159 -393 -52 -730 -95 -749 -95 l-34 0 7 188 c12
355 19 491 25 500 6 10 271 90 1326 402 264 78 507 150 540 160 93 29 95 29
95 -34z m3390 -934 c15 -12 24 -33 27 -63 5 -41 -1 -57 -54 -160 -95 -181
-162 -296 -177 -302 -7 -3 -104 30 -215 74 -199 77 -203 78 -262 70 -32 -4
-62 -10 -65 -14 -16 -16 8 -35 52 -41 75 -10 430 -155 440 -179 5 -14 -96
-211 -121 -236 -11 -12 -151 -12 -932 -2 -505 6 -941 13 -968 16 -81 7 -528
114 -543 129 -22 21 -41 108 -33 147 5 23 18 41 41 57 33 22 41 23 130 18 144
-10 1743 -24 1759 -16 8 4 73 106 146 226 141 235 175 273 248 285 23 3 146 7
273 8 209 1 234 -1 254 -17z m-2580 -818 c43 -10 71 -21 75 -32 3 -8 10 -61
15 -116 6 -56 13 -115 16 -132 3 -18 1 -34 -4 -38 -13 -8 -184 15 -199 27 -16
12 -18 259 -3 288 13 23 13 23 100 3z m306 -62 l69 -7 0 -130 0 -130 -86 -3
c-118 -4 -119 -3 -119 147 0 124 7 145 45 135 12 -3 53 -8 91 -12z m-2324
-252 c403 -21 797 -42 875 -46 78 -4 147 -10 154 -15 15 -9 -2 -254 -20 -272
-12 -12 -686 62 -1179 129 -489 66 -1196 174 -1206 184 -6 6 -4 11 5 14 29 11
418 44 526 45 62 0 442 -17 845 -39z m1708 -90 c228 -11 425 -23 437 -25 13
-3 30 -19 39 -37 30 -57 61 -78 120 -78 65 0 97 12 150 56 41 33 45 34 131 34
48 0 93 -4 99 -8 7 -4 23 -35 37 -69 19 -46 22 -64 14 -72 -7 -5 -207 -12
-472 -16 -341 -5 -473 -10 -510 -21 -53 -14 -545 -47 -569 -38 -8 3 -16 11
-19 17 -5 14 11 245 18 265 6 16 37 16 525 -8z m651 -41 c29 -15 13 -29 -34
-29 -47 0 -73 12 -63 29 9 14 71 14 97 0z m8419 -29 c44 -44 51 -115 20 -190
l-18 -45 30 -32 c47 -48 34 -63 -54 -63 -86 0 -235 -23 -275 -42 -26 -12 -28
-17 -33 -93 l-5 -79 -48 -25 c-44 -22 -58 -24 -165 -22 -173 2 -572 17 -1254
47 l-607 27 -163 -32 c-90 -17 -190 -31 -223 -32 -33 0 -107 -6 -165 -14 -58
-8 -131 -15 -164 -15 l-59 0 -79 78 -79 77 -19 110 c-16 87 -18 112 -8 121 17
17 3076 80 3092 64 5 -5 16 -10 24 -10 20 0 72 59 93 107 11 23 31 51 46 62
33 27 87 27 113 1z m-7835 1 c74 -7 78 -25 16 -58 -63 -33 -130 -32 -165 3
-26 27 -32 45 -19 57 8 8 84 7 168 -2z m820 -42 c319 -17 586 -36 593 -41 6
-6 12 -21 12 -33 l0 -23 -242 -7 c-134 -4 -283 -4 -333 -1 -49 4 -246 9 -437
12 -266 4 -348 8 -348 18 0 31 102 106 145 106 16 0 291 -14 610 -31z"/>
<path d="M9366 5568 c-4 -77 -27 -1326 -26 -1480 0 -46 1 -47 38 -58 77 -22
875 -179 883 -174 12 7 11 1485 0 1502 -8 13 -848 302 -876 302 -9 0 -15 -26
-19 -92z m416 -99 c178 -61 346 -119 373 -128 l50 -18 8 -84 c4 -46 6 -358 5
-692 -2 -496 -5 -609 -16 -616 -16 -10 -780 143 -795 158 -11 11 9 1436 19
1474 3 9 11 17 19 17 7 0 159 -50 337 -111z"/>
<path d="M7520 5380 c-199 -53 -603 -170 -610 -176 -3 -3 -7 -339 -8 -745 l-4
-740 34 5 c130 21 785 137 796 141 9 3 12 131 12 592 0 323 -3 672 -7 776 l-6
187 -31 -1 c-17 0 -96 -18 -176 -39z m151 -75 c4 -22 9 -340 13 -706 6 -563 5
-668 -7 -677 -21 -18 -706 -137 -718 -125 -12 12 5 1351 17 1363 8 8 371 114
574 169 103 27 113 25 121 -24z"/>
<path d="M6370 5061 c-190 -59 -354 -110 -364 -114 -19 -7 -19 -25 -12 -690 4
-375 9 -683 11 -686 5 -5 88 8 447 65 202 33 288 51 292 60 3 8 9 343 12 744
l7 730 -24 -1 c-13 0 -179 -49 -369 -108z m325 -643 c0 -446 -3 -670 -10 -677
-11 -11 -546 -101 -596 -101 l-26 0 -6 137 c-4 75 -7 355 -7 623 0 383 3 490
13 498 19 16 589 192 612 189 20 -2 20 -9 20 -669z"/>
<path d="M11416 4988 c-3 -13 -8 -304 -12 -649 l-7 -626 29 -5 c113 -22 535
-71 543 -63 6 6 13 244 17 571 l7 562 -34 17 c-38 20 -519 215 -530 215 -3 0
-9 -10 -13 -22z m286 -149 c112 -44 209 -86 216 -91 10 -9 12 -115 10 -519 -2
-324 -7 -512 -13 -518 -14 -14 -434 44 -452 61 -10 11 -11 118 -2 572 5 308
12 563 15 568 3 4 9 8 14 8 6 0 101 -36 212 -81z"/>
<path d="M4900 4594 c-178 -52 -328 -100 -332 -107 -4 -7 -8 -185 -8 -397 0
-212 -3 -456 -7 -542 l-6 -158 27 0 c29 0 523 73 619 92 l57 11 0 567 c0 530
-3 631 -19 629 -3 0 -152 -43 -331 -95z m290 -524 c0 -402 -3 -520 -12 -527
-16 -12 -508 -86 -540 -81 l-23 3 3 485 c3 357 7 488 15 497 21 21 530 162
545 151 9 -8 12 -126 12 -528z"/>
<path d="M2379 3731 c-69 -21 -131 -41 -137 -45 -13 -8 -17 -261 -5 -430 l6
-98 61 6 c34 4 100 14 147 22 l86 16 7 66 c8 87 8 348 -1 435 -5 53 -9 67 -22
66 -9 0 -73 -17 -142 -38z m115 -37 c9 -25 7 -427 -3 -443 -12 -19 -191 -47
-201 -31 -13 20 -22 412 -10 424 12 12 164 63 191 65 9 1 20 -6 23 -15z"/>
<path d="M1165 3388 c-55 -16 -105 -35 -112 -41 -8 -8 -15 -75 -19 -205 l-7
-192 39 1 c73 1 216 25 223 38 8 13 21 232 21 358 0 88 4 87 -145 41z m90
-191 c0 -139 -2 -160 -17 -171 -19 -14 -134 -30 -149 -20 -10 6 -10 246 0 284
5 20 20 29 71 47 36 12 72 21 80 20 13 -2 15 -27 15 -160z"/>
</g>
</svg>
